<svg width="56" height="56" viewBox="0 0 56 56" fill="none" xmlns="http://www.w3.org/2000/svg">
<path d="M33.2501 42.0001V39.3751C33.2501 36.2032 36.6997 33.203 38.9376 31.0626C42.0919 28.0471 43.7501 23.9958 43.7501 19.2501C43.7501 10.5001 36.7796 3.50006 28.0001 3.50006C25.9301 3.49429 23.8795 3.89773 21.966 4.6872C20.0525 5.47666 18.3139 6.63658 16.8503 8.10025C15.3866 9.56393 14.2267 11.3025 13.4372 13.216C12.6477 15.1295 12.2443 17.1801 12.2501 19.2501C12.2501 23.8263 13.9793 28.1521 17.0626 31.0626C19.2883 33.1637 22.7501 36.1704 22.7501 39.3751V42.0001M24.5001 52.5001H31.5001M22.7501 47.2501H33.2501M28.0001 42.0001V28.0001" stroke="#D1CDFF" stroke-width="2" stroke-linecap="round" stroke-linejoin="round"/>
<path d="M32.1562 26.25C32.1562 26.25 29.8036 28 28 28C26.1964 28 23.8438 26.25 23.8438 26.25" stroke="#D1CDFF" stroke-width="2" stroke-linecap="round" stroke-linejoin="round"/>
</svg>
