<svg width="53" height="53" viewBox="0 0 53 53" fill="none" xmlns="http://www.w3.org/2000/svg">
<path d="M21.1613 19.0085L23.4799 10.8981C24.3488 7.86228 28.6512 7.86228 29.52 10.8981L31.8361 19.0085C31.9828 19.5215 32.2577 19.9888 32.635 20.3661C33.0123 20.7434 33.4795 21.0183 33.9925 21.165L42.1027 23.4811C45.1385 24.35 45.1385 28.6525 42.1027 29.5214L33.9925 31.8375C33.4795 31.9841 33.0123 32.2591 32.635 32.6364C32.2577 33.0137 31.9828 33.4809 31.8361 33.994L29.52 42.1044C28.6512 45.1402 24.3488 45.1402 23.4799 42.1044L21.1639 33.994C21.0172 33.4809 20.7423 33.0137 20.365 32.6364C19.9877 32.2591 19.5205 31.9841 19.0075 31.8375L10.8973 29.5214C7.86154 28.6525 7.86154 24.35 10.8973 23.4811L19.0075 21.165C19.5205 21.0183 19.9877 20.7434 20.365 20.3661C20.7423 19.9888 21.0172 19.5215 21.1639 19.0085M42.4743 38.2965C43.2306 36.0903 46.4103 36.0877 47.164 38.2965L47.2321 38.5242L48.0067 41.6333L51.1157 42.4106C53.6281 43.0387 53.6281 46.6032 51.1157 47.2313L48.0067 48.0085L47.2321 51.1177C46.604 53.6275 43.037 53.6275 42.4089 51.1177L41.6316 48.0085L38.5226 47.2313C36.0103 46.6032 36.0103 43.0361 38.5226 42.4106L41.6316 41.6333L42.4089 38.5242L42.4743 38.2965ZM44.8192 44.2897C44.6686 44.4914 44.4896 44.6703 44.2879 44.8209C44.4896 44.9715 44.6686 45.1505 44.8192 45.3522C44.9698 45.1505 45.1487 44.9715 45.3504 44.8209C45.1485 44.6695 44.9696 44.4897 44.8192 44.287M5.83597 1.65453C6.61584 -0.62496 9.98395 -0.549065 10.5937 1.88222L11.3684 4.99133L14.4774 5.76861C16.9897 6.39671 16.9897 9.96119 14.4774 10.5893L11.3684 11.3666L10.5937 14.4757C9.96563 16.9855 6.39863 16.9855 5.77054 14.4757L4.99328 11.3666L1.88426 10.5893C-0.628086 9.96119 -0.628086 6.39409 1.88426 5.76861L4.99328 4.99133L5.77054 1.88222L5.83597 1.65453ZM8.18082 7.6503C8.03002 7.85109 7.8511 8.02914 7.64956 8.17895C7.85147 8.33037 8.0304 8.51019 8.18082 8.71284C8.33124 8.51019 8.51018 8.33037 8.71208 8.17895C8.51036 8.02834 8.33143 7.85202 8.18082 7.6503Z" fill="#A09AEA"/>
</svg>
